<svg xmlns="http://www.w3.org/2000/svg" width="186.687" height="190.5" viewBox="0 0 186.687 190.5">
  <g id="logo-facebook" transform="translate(-100.228 -100.226)">
    <g id="g538" transform="translate(100.227 100.226)">
      <path id="path540" d="M-156.429,0c-51.554,0-93.344,42.643-93.344,95.25,0,47,33.372,86.025,77.243,93.811v-.327h0v-67.2h-22.529V95.245h22.529V74.265c0-23.872,15.444-38.133,36.771-38.133a159.223,159.223,0,0,1,21.167,1.712V62.406h-12.05c-11.593,0-13.7,7.448-13.7,14.98V95.245h25.748l-4.5,26.283h-21.245V189.06c43.876-7.785,77.248-46.806,77.248-93.811,0-52.607-41.79-95.25-93.344-95.25" transform="translate(249.773)" fill="#1778f2"/>
    </g>
    <g id="g542" transform="translate(154.098 136.359)">
      <path id="path544" d="M-90.584-138.536H-68.9l4.6-26.284H-90.584v-17.858c0-7.532,2.153-14.98,13.983-14.98h12.3v-24.562a165.854,165.854,0,0,0-21.609-1.712c-21.753,0-37.513,14.261-37.513,38.133v20.979h-22.994v26.284h22.994V-71a95.252,95.252,0,0,0,16.414,1.439A95.294,95.294,0,0,0-90.584-71Z" transform="translate(146.421 223.931)" fill="#fff"/>
    </g>
  </g>
</svg>
