<svg id="logo-blanc-123pb" xmlns="http://www.w3.org/2000/svg" width="203.806" height="100" viewBox="0 0 203.806 150.951">
  <g id="Groupe_541" data-name="Groupe 541" transform="translate(0 92.528)">
    <g id="Groupe_539" data-name="Groupe 539" transform="translate(0.99 33.084)">
      <path id="Tracé_427" data-name="Tracé 427" d="M4.19,532.182a.488.488,0,0,1,.456-.482H5.39a.488.488,0,0,1,.456.482v16.773a.486.486,0,0,1-.456.482H4.646a.488.488,0,0,1-.456-.482Z" transform="translate(-4.19 -531.7)" fill="#fff"/>
      <path id="Tracé_428" data-name="Tracé 428" d="M26.619,566.762a7.514,7.514,0,0,1,2.039.328c.024-1.876-.191-2.736-1.559-2.736a7.807,7.807,0,0,0-2.88.558c-.239.1-.383-.026-.456-.253l-.191-.633a.411.411,0,0,1,.265-.558,8.617,8.617,0,0,1,3.336-.659c2.447,0,3.048,1.318,3.048,4.283v5.625a.486.486,0,0,1-.456.482h-.456c-.265,0-.335-.151-.409-.38l-.191-.685a4.067,4.067,0,0,1-2.977,1.318,3.007,3.007,0,0,1-2.951-3.319c0-2.027,1.368-3.369,3.839-3.369ZM26,571.931a3.352,3.352,0,0,0,2.639-1.42v-2a4.1,4.1,0,0,0-2.015-.406c-1.344,0-2.3.709-2.3,2.027A1.668,1.668,0,0,0,26,571.931Z" transform="translate(-18.388 -555.46)" fill="#fff"/>
      <path id="Tracé_429" data-name="Tracé 429" d="M85.161,564.471c-.144-.328,0-.581.359-.581h.744a.466.466,0,0,1,.432.279l2.974,7.248h.024l3.168-7.248a.456.456,0,0,1,.409-.279H93.9c.359,0,.5.253.359.581l-4.1,9.554a.421.421,0,0,1-.409.253h-.12a.426.426,0,0,1-.409-.253l-4.056-9.554Z" transform="translate(-65.99 -556.285)" fill="#fff"/>
      <path id="Tracé_430" data-name="Tracé 430" d="M132.67,563.545a.486.486,0,0,1,.456-.482h.456a.416.416,0,0,1,.409.354l.191.735a3.5,3.5,0,0,1,2.88-1.342c.721,0,1.921.128,1.68.836l-.288.862c-.12.331-.335.331-.576.229a2.357,2.357,0,0,0-.936-.2,3.061,3.061,0,0,0-2.615,1.42v6.764a.486.486,0,0,1-.456.482h-.744a.486.486,0,0,1-.456-.482v-9.171Z" transform="translate(-102.317 -555.46)" fill="#fff"/>
      <path id="Tracé_431" data-name="Tracé 431" d="M167.479,566.762a7.514,7.514,0,0,1,2.039.328c.024-1.876-.191-2.736-1.559-2.736a7.807,7.807,0,0,0-2.88.558c-.241.1-.385-.026-.456-.253l-.191-.633a.411.411,0,0,1,.265-.558,8.617,8.617,0,0,1,3.336-.659c2.447,0,3.048,1.318,3.048,4.283v5.625a.486.486,0,0,1-.456.482h-.456c-.265,0-.335-.151-.409-.38l-.191-.685a4.067,4.067,0,0,1-2.977,1.318,3.007,3.007,0,0,1-2.951-3.319c0-2.027,1.368-3.369,3.839-3.369Zm-.624,5.169a3.352,3.352,0,0,0,2.639-1.42v-2a4.1,4.1,0,0,0-2.015-.406c-1.344,0-2.3.709-2.3,2.027A1.668,1.668,0,0,0,166.855,571.931Z" transform="translate(-125.971 -555.46)" fill="#fff"/>
      <path id="Tracé_432" data-name="Tracé 432" d="M207.82,535.067a1.165,1.165,0,0,1,1.127-1.217,1.184,1.184,0,0,1,1.15,1.217,1.14,1.14,0,1,1-2.277,0Zm.335,6.36a.486.486,0,0,1,.456-.482h.744a.488.488,0,0,1,.456.482V550.6a.486.486,0,0,1-.456.482h-.744a.488.488,0,0,1-.456-.482Z" transform="translate(-159.713 -533.342)" fill="#fff"/>
      <path id="Tracé_433" data-name="Tracé 433" d="M232.424,562.81a4.362,4.362,0,0,1,4.342,4.638,6.677,6.677,0,0,1-.047.685.453.453,0,0,1-.432.43h-6.91a3.46,3.46,0,0,0,3.215,3.293,4.405,4.405,0,0,0,2.377-.761c.335-.2.48-.328.671-.05.144.2.265.38.409.583.168.229.265.38-.1.659a5.755,5.755,0,0,1-3.527,1.165c-2.9,0-4.7-2.407-4.7-5.32s1.8-5.32,4.7-5.32Zm2.688,4.333a2.85,2.85,0,0,0-2.688-2.788,3.045,3.045,0,0,0-3.024,2.788Z" transform="translate(-174.912 -555.46)" fill="#fff"/>
      <path id="Tracé_434" data-name="Tracé 434" d="M299.73,532.182a.486.486,0,0,1,.456-.482h.744a.486.486,0,0,1,.456.482v7.524a4.932,4.932,0,0,1,2.568-.659c2.88,0,4.607,2.332,4.607,5.3s-1.918,5.346-4.368,5.346a4.209,4.209,0,0,1-2.951-1.342l-.144.685a.444.444,0,0,1-.409.406h-.5a.486.486,0,0,1-.456-.482V532.184Zm4.295,15.913c1.751,0,2.856-1.748,2.856-3.726s-1.056-3.624-3.144-3.624a4.951,4.951,0,0,0-2.327.607v5.068a3.247,3.247,0,0,0,2.615,1.673Z" transform="translate(-229.91 -531.7)" fill="#fff"/>
      <path id="Tracé_435" data-name="Tracé 435" d="M350.415,562.81a5.078,5.078,0,0,1,4.774,5.3c0,2.863-2.112,5.346-4.774,5.346s-4.775-2.433-4.775-5.346A5.047,5.047,0,0,1,350.415,562.81Zm0,8.994c1.751,0,3.121-1.647,3.121-3.7a3.156,3.156,0,1,0-6.242,0C347.294,570.108,348.662,571.8,350.415,571.8Z" transform="translate(-264.974 -555.46)" fill="#fff"/>
      <path id="Tracé_436" data-name="Tracé 436" d="M397.53,563.545a.486.486,0,0,1,.456-.482h.456a.352.352,0,0,1,.383.3l.215.784a5.222,5.222,0,0,1,3.359-1.342c2.783,0,3.721,1.925,3.721,4.562v5.346a.486.486,0,0,1-.456.482H404.9a.488.488,0,0,1-.456-.482v-5.346c0-1.925-.815-2.863-2.159-2.863a4.636,4.636,0,0,0-3.095,1.443v6.764a.486.486,0,0,1-.456.482h-.744a.488.488,0,0,1-.456-.482Z" transform="translate(-304.605 -555.46)" fill="#fff"/>
      <path id="Tracé_437" data-name="Tracé 437" d="M447.8,563.545a.486.486,0,0,1,.456-.482h.456a.355.355,0,0,1,.385.3l.215.784a5.221,5.221,0,0,1,3.359-1.342c2.783,0,3.719,1.925,3.719,4.562v5.346a.486.486,0,0,1-.456.482h-.768a.488.488,0,0,1-.456-.482v-5.346c0-1.925-.815-2.863-2.159-2.863a4.636,4.636,0,0,0-3.095,1.443v6.764a.486.486,0,0,1-.456.482h-.744a.486.486,0,0,1-.456-.482Z" transform="translate(-342.999 -555.46)" fill="#fff"/>
      <path id="Tracé_438" data-name="Tracé 438" d="M499.834,562.81a4.362,4.362,0,0,1,4.342,4.638,6.677,6.677,0,0,1-.047.685.451.451,0,0,1-.432.43h-6.91A3.46,3.46,0,0,0,500,571.856a4.405,4.405,0,0,0,2.377-.761c.335-.2.48-.328.671-.05.144.2.265.38.409.583.168.229.265.38-.1.659a5.755,5.755,0,0,1-3.527,1.165c-2.9,0-4.7-2.407-4.7-5.32s1.8-5.32,4.7-5.32Zm2.688,4.333a2.85,2.85,0,0,0-2.688-2.788,3.045,3.045,0,0,0-3.024,2.788Z" transform="translate(-379.148 -555.46)" fill="#fff"/>
      <path id="Tracé_439" data-name="Tracé 439" d="M564.43,571.788c.1-.151.265-.508.335-.633a.43.43,0,0,1,.647-.076,3.941,3.941,0,0,0,2.256.886c.983,0,1.559-.531,1.559-1.217,0-.886-.721-1.292-2.112-2.027-1.271-.659-2.736-1.545-2.736-3.267a2.756,2.756,0,0,1,3.048-2.634,4.693,4.693,0,0,1,2.662.787.633.633,0,0,1,.144.784l-.191.406a.516.516,0,0,1-.7.229,4.611,4.611,0,0,0-1.921-.607c-1.08,0-1.368.583-1.368,1.013,0,.836.791,1.217,1.777,1.722,1.656.836,3.144,1.621,3.144,3.447a3.1,3.1,0,0,1-3.312,2.863,4.715,4.715,0,0,1-3.121-1.141.524.524,0,0,1-.12-.532Z" transform="translate(-432.038 -555.468)" fill="#fff"/>
      <path id="Tracé_440" data-name="Tracé 440" d="M602.68,564.362a.486.486,0,0,1,.456-.482h.768a.486.486,0,0,1,.456.482v5.346c0,1.925.815,2.863,2.159,2.863a3.751,3.751,0,0,0,2.856-1.443v-6.766a.486.486,0,0,1,.456-.482h.744a.488.488,0,0,1,.456.482v9.171a.486.486,0,0,1-.456.482h-.456c-.265,0-.359-.177-.432-.43l-.168-.659a4.294,4.294,0,0,1-3.121,1.342c-2.783,0-3.719-1.9-3.719-4.585Z" transform="translate(-461.29 -556.278)" fill="#fff"/>
      <path id="Tracé_441" data-name="Tracé 441" d="M652.44,563.545a.488.488,0,0,1,.456-.482h.456a.414.414,0,0,1,.409.354l.191.735a3.5,3.5,0,0,1,2.88-1.342c.721,0,1.921.128,1.68.836l-.288.862c-.12.331-.335.331-.576.229a2.357,2.357,0,0,0-.936-.2,3.061,3.061,0,0,0-2.615,1.42v6.764a.486.486,0,0,1-.456.482H652.9a.488.488,0,0,1-.456-.482v-9.171Z" transform="translate(-499.294 -555.46)" fill="#fff"/>
      <path id="Tracé_442" data-name="Tracé 442" d="M688.116,580.318a.486.486,0,0,1-.456.482h-.744a.488.488,0,0,1-.456-.482V563.545a.486.486,0,0,1,.456-.482h.5c.215,0,.288.076.383.328l.168.482a4.168,4.168,0,0,1,2.783-1.063c2.615,0,4.536,2.433,4.536,5.346s-1.968,5.294-4.607,5.294a4.224,4.224,0,0,1-2.568-.836v7.7Zm2.351-8.564c1.848,0,3.144-1.6,3.144-3.624s-1.1-3.726-3.024-3.726a3.219,3.219,0,0,0-2.448,1.243v5.219a3.915,3.915,0,0,0,2.327.886Z" transform="translate(-525.277 -555.46)" fill="#fff"/>
      <path id="Tracé_443" data-name="Tracé 443" d="M735.31,563.545a.488.488,0,0,1,.456-.482h.456a.414.414,0,0,1,.409.354l.191.735a3.5,3.5,0,0,1,2.88-1.342c.721,0,1.921.128,1.68.836l-.288.862c-.12.331-.335.331-.576.229a2.357,2.357,0,0,0-.936-.2,3.061,3.061,0,0,0-2.615,1.42v6.764a.486.486,0,0,1-.456.482h-.744a.488.488,0,0,1-.456-.482v-9.171Z" transform="translate(-562.586 -555.46)" fill="#fff"/>
      <path id="Tracé_444" data-name="Tracé 444" d="M767.81,535.067a1.165,1.165,0,0,1,1.127-1.217,1.184,1.184,0,0,1,1.151,1.217,1.14,1.14,0,1,1-2.277,0Zm.335,6.36a.486.486,0,0,1,.456-.482h.744a.488.488,0,0,1,.456.482V550.6a.486.486,0,0,1-.456.482H768.6a.486.486,0,0,1-.456-.482Z" transform="translate(-587.409 -533.342)" fill="#fff"/>
      <path id="Tracé_445" data-name="Tracé 445" d="M788.07,571.788c.1-.151.265-.508.335-.633a.43.43,0,0,1,.647-.076,3.942,3.942,0,0,0,2.256.886c.983,0,1.559-.531,1.559-1.217,0-.886-.721-1.292-2.112-2.027-1.271-.659-2.736-1.545-2.736-3.267a2.756,2.756,0,0,1,3.048-2.634,4.693,4.693,0,0,1,2.662.787.633.633,0,0,1,.144.784l-.191.406a.516.516,0,0,1-.7.229,4.609,4.609,0,0,0-1.921-.607c-1.08,0-1.368.583-1.368,1.013,0,.836.792,1.217,1.777,1.722,1.656.836,3.144,1.621,3.144,3.447a3.1,3.1,0,0,1-3.312,2.863,4.714,4.714,0,0,1-3.121-1.141.524.524,0,0,1-.12-.532Z" transform="translate(-602.844 -555.468)" fill="#fff"/>
      <path id="Tracé_446" data-name="Tracé 446" d="M828.574,562.81a4.362,4.362,0,0,1,4.342,4.638,6.66,6.66,0,0,1-.047.685.451.451,0,0,1-.432.43h-6.91a3.46,3.46,0,0,0,3.215,3.293,4.4,4.4,0,0,0,2.377-.761c.336-.2.48-.328.671-.05.144.2.265.38.409.583.168.229.265.38-.1.659a5.755,5.755,0,0,1-3.527,1.165c-2.9,0-4.7-2.407-4.7-5.32s1.8-5.32,4.7-5.32Zm2.688,4.333a2.85,2.85,0,0,0-2.688-2.788,3.045,3.045,0,0,0-3.024,2.788h5.71Z" transform="translate(-630.225 -555.46)" fill="#fff"/>
    </g>
    <g id="Groupe_540" data-name="Groupe 540">
      <path id="Tracé_447" data-name="Tracé 447" d="M0,393.686a.61.61,0,0,1,.593-.626H8.124a7.188,7.188,0,0,1,7,7.293,7.3,7.3,0,0,1-6.969,7.425H4.874v7.756a.631.631,0,0,1-.593.626H.593A.61.61,0,0,1,0,415.534V393.688Zm7.843,9.273a2.524,2.524,0,0,0,2.469-2.606,2.444,2.444,0,0,0-2.469-2.443H4.874v5.049Z" transform="translate(0 -392.729)" fill="#fff"/>
      <path id="Tracé_448" data-name="Tracé 448" d="M77.074,414.233l9.783-22.209a.634.634,0,0,1,.532-.364H87.7a.634.634,0,0,1,.532.364l9.783,22.209a.58.58,0,0,1-.532.858H94.015c-.562,0-.813-.2-1.094-.825L91.8,411.66H83.3L82.172,414.3a1.167,1.167,0,0,1-1.125.791H77.61a.58.58,0,0,1-.532-.858Zm12.845-7.061-2.374-5.445h-.031l-2.344,5.445h4.751Z" transform="translate(-58.821 -391.66)" fill="#fff"/>
      <path id="Tracé_449" data-name="Tracé 449" d="M193.28,393.686a.61.61,0,0,1,.593-.626h9.346a6.991,6.991,0,0,1,6.813,7.128,7.214,7.214,0,0,1-4.626,6.634l4.281,8.382a.624.624,0,0,1-.532.957H205a.574.574,0,0,1-.5-.3l-4.156-8.746h-2.157v8.415a.631.631,0,0,1-.593.626h-3.718a.61.61,0,0,1-.593-.626V393.686Zm9.532,9.24a2.587,2.587,0,0,0,2.377-2.639,2.466,2.466,0,0,0-2.377-2.509h-4.626v5.148Z" transform="translate(-147.619 -392.729)" fill="#fff"/>
      <path id="Tracé_450" data-name="Tracé 450" d="M298.46,393.686a.61.61,0,0,1,.593-.626h12.939a.61.61,0,0,1,.593.626v3.6a.61.61,0,0,1-.593.626h-8.656V402h7.125a.633.633,0,0,1,.593.626v3.6a.609.609,0,0,1-.593.626h-7.125v4.456h8.656a.61.61,0,0,1,.593.626v3.6a.61.61,0,0,1-.593.626H299.053a.61.61,0,0,1-.593-.626Z" transform="translate(-227.95 -392.729)" fill="#fff"/>
      <path id="Tracé_451" data-name="Tracé 451" d="M384.19,451.729v-3a.59.59,0,0,1,.593-.626h7.156a.59.59,0,0,1,.593.626v3a.582.582,0,0,1-.593.593h-7.156A.582.582,0,0,1,384.19,451.729Z" transform="translate(-293.427 -434.766)" fill="#fff"/>
      <path id="Tracé_452" data-name="Tracé 452" d="M450.992,393.686a.61.61,0,0,1,.593-.626h7.281c3.688,0,6.719,2.672,6.719,6.138,0,2.542-2.157,4.389-3.626,5.214,1.656.725,4.189,2.344,4.189,5.379a6.516,6.516,0,0,1-6.813,6.369h-7.751a.61.61,0,0,1-.593-.626V393.688Zm7.314,8.746a2.3,2.3,0,0,0,2.188-2.377,2.178,2.178,0,0,0-2.188-2.244h-2.438v4.621Zm.406,9.008a2.334,2.334,0,0,0,2.249-2.41,2.521,2.521,0,0,0-2.563-2.31h-2.533v4.718h2.844Z" transform="translate(-344.446 -392.729)" fill="#fff"/>
      <path id="Tracé_453" data-name="Tracé 453" d="M548.5,393.686a.61.61,0,0,1,.593-.626h9.344a6.989,6.989,0,0,1,6.813,7.128,7.214,7.214,0,0,1-4.626,6.634L564.9,415.2a.624.624,0,0,1-.531.957h-4.156a.574.574,0,0,1-.5-.3l-4.156-8.746H553.4v8.415a.631.631,0,0,1-.593.626h-3.719a.61.61,0,0,1-.593-.626Zm9.533,9.24a2.587,2.587,0,0,0,2.374-2.639,2.465,2.465,0,0,0-2.374-2.509h-4.626v5.148Z" transform="translate(-418.92 -392.729)" fill="#fff"/>
      <path id="Tracé_454" data-name="Tracé 454" d="M653.68,393.686a.631.631,0,0,1,.593-.626h3.752a.633.633,0,0,1,.593.626v21.846a.631.631,0,0,1-.593.626h-3.752a.633.633,0,0,1-.593-.626Z" transform="translate(-499.252 -392.729)" fill="#fff"/>
      <path id="Tracé_455" data-name="Tracé 455" d="M708.076,411.956l1.469-2.738a.777.777,0,0,1,1.063-.2c.125.066,2.374,1.814,4.437,1.814a2,2,0,0,0,2.157-1.98c0-1.387-1.094-2.443-3.22-3.333-2.688-1.122-6.062-3.333-6.062-7.293,0-3.267,2.407-6.568,7.22-6.568a11.252,11.252,0,0,1,6.688,2.476.867.867,0,0,1,.187,1.056l-1.595,2.542c-.22.364-.782.659-1.063.43-.281-.165-2.563-1.98-4.47-1.98a1.844,1.844,0,0,0-1.968,1.682c0,1.221.938,2.145,3.407,3.2,2.438,1.023,6.313,3.036,6.313,7.524a7.024,7.024,0,0,1-7.376,6.83,9.62,9.62,0,0,1-7.031-2.542C707.92,412.549,707.826,412.417,708.076,411.956Z" transform="translate(-540.678 -391.66)" fill="#fff"/>
      <path id="Tracé_456" data-name="Tracé 456" d="M802.9,393.686a.61.61,0,0,1,.593-.626h12.939a.61.61,0,0,1,.593.626v3.6a.61.61,0,0,1-.593.626h-8.656V402H814.9a.633.633,0,0,1,.593.626v3.6a.609.609,0,0,1-.593.626h-7.125v4.456h8.656a.61.61,0,0,1,.593.626v3.6a.61.61,0,0,1-.593.626H803.493a.61.61,0,0,1-.593-.626Z" transform="translate(-613.219 -392.729)" fill="#fff"/>
    </g>
  </g>
  <g id="Groupe_542" data-name="Groupe 542" transform="translate(26.913 0)">
    <path id="Tracé_457" data-name="Tracé 457" d="M113.92,17.783V75.33h16.341V.53Z" transform="translate(-113.92 -0.405)" fill="#fff"/>
    <path id="Tracé_458" data-name="Tracé 458" d="M284.953,57.62l-.109-.116,6.768-7.142h0a29.674,29.674,0,0,0,8.9-21.345c0-12.252-7.241-22.746-17.44-26.977a26.084,26.084,0,0,0-10.005-2c-11.531,0-21.418,7.553-25.472,18.214L257.7,28.9l7.071-7.484,1.08-1.143a10.62,10.62,0,0,1,7.22-2.866c6.062,0,10.995,5.207,10.995,11.609a11.852,11.852,0,0,1-3.879,8.838L263.07,55.99h0L245.25,74.871l.009-.009-.009.009h55.518V57.615h-15.81Z" transform="translate(-214.224 -0.031)" fill="#fff"/>
    <path id="Tracé_459" data-name="Tracé 459" d="M576.38,86.21,563.566,99.778a11.41,11.41,0,0,1,10.076,11.581c0,6.412-4.94,11.626-11.011,11.626a11.28,11.28,0,0,1-10.967-10.605L538.85,125.946A27.294,27.294,0,0,0,562.628,140.4c15.167,0,27.508-13.029,27.508-29.046A29.382,29.382,0,0,0,576.378,86.21Z" transform="translate(-438.463 -65.843)" fill="#fff"/>
    <path id="Tracé_460" data-name="Tracé 460" d="M559.467,16.391a26.311,26.311,0,0,1,13.816,3.926L584.5,8.467a41.236,41.236,0,0,0-50.039-.019L545.684,20.3A26.3,26.3,0,0,1,559.467,16.391Z" transform="translate(-435.11 0)" fill="#fff"/>
  </g>
</svg>
